<?xml version="1.0" encoding="utf-8"?>
<!-- Generator: Adobe Illustrator 19.0.0, SVG Export Plug-In . SVG Version: 6.00 Build 0)  -->
<svg version="1.1" id="Layer_1" xmlns="http://www.w3.org/2000/svg" xmlns:xlink="http://www.w3.org/1999/xlink" x="0px" y="0px"
	 viewBox="0 0 432 432" style="enable-background:new 0 0 432 432;" xml:space="preserve">
<style type="text/css">
	.st0{fill:#FFFFFF;}
	.st1{fill:#2B3087;}
	.st2{fill:#EF3C24;}
	.st3{font-family:'Arial-BoldMT';}
	.st4{font-size:31.9434px;}
	.st5{fill:#EC008C;}
	.st6{fill:none;}
	.st7{fill:#FFF200;}
</style>
<rect id="XMLID_3_" x="0" y="0" class="st0" width="432" height="247.3"/>
<path id="XMLID_56_" d="M181.2,179.8"/>
<g id="XMLID_1_">
	<g id="XMLID_2_">
		<path id="XMLID_10_" class="st1" d="M147.8,152.9V91.6h18.5l11.1,41.8l11-41.8H207v61.3h-11.5v-48.3l-12.2,48.3h-11.9l-12.1-48.3
			v48.3H147.8z"/>
		<path id="XMLID_12_" class="st2" d="M256.8,152.9h-13.5L238,139h-24.5l-5.1,13.9h-13.1l23.9-61.3h13.1L256.8,152.9z M234,128.6
			l-8.4-22.8l-8.3,22.8H234z"/>
		<path id="XMLID_16_" class="st1" d="M268,130.3V120h26.7v24.4c-2.6,2.5-6.3,4.7-11.3,6.6c-4.9,1.9-9.9,2.9-14.9,2.9
			c-6.4,0-12-1.3-16.8-4c-4.8-2.7-8.4-6.5-10.7-11.5c-2.4-5-3.6-10.4-3.6-16.3c0-6.4,1.3-12.1,4-17c2.7-5,6.6-8.8,11.8-11.4
			c3.9-2,8.8-3.1,14.7-3.1c7.6,0,13.6,1.6,17.8,4.8c4.3,3.2,7,7.6,8.3,13.2l-12.3,2.3c-0.9-3-2.5-5.4-4.9-7.1
			c-2.4-1.7-5.4-2.6-8.9-2.6c-5.4,0-9.7,1.7-12.9,5.1c-3.2,3.4-4.8,8.5-4.8,15.3c0,7.3,1.6,12.7,4.9,16.4c3.2,3.6,7.5,5.5,12.7,5.5
			c2.6,0,5.2-0.5,7.8-1.5c2.6-1,4.8-2.3,6.7-3.7v-7.8H268z"/>
		<path id="XMLID_19_" class="st2" d="M293.4,152.9V91.6h19.9c7.5,0,12.4,0.3,14.7,0.9c3.5,0.9,6.5,2.9,8.8,6
			c2.4,3.1,3.6,7.1,3.6,11.9c0,3.8-0.7,6.9-2.1,9.5c-1.4,2.6-3.1,4.6-5.2,6c-2.1,1.5-4.2,2.4-6.4,2.9c-3,0.6-7.2,0.9-12.8,0.9h-8.1
			v23.1H293.4z M305.8,102v17.4h6.8c4.9,0,8.1-0.3,9.8-1c1.6-0.6,2.9-1.6,3.9-3c0.9-1.4,1.4-3,1.4-4.8c0-2.2-0.7-4.1-2-5.5
			c-1.3-1.4-3-2.4-5-2.7c-1.5-0.3-4.4-0.4-8.9-0.4H305.8z"/>
		<path id="XMLID_22_" class="st1" d="M336,152.9V91.6h12.4v61.3H336z"/>
		<path id="XMLID_24_" class="st2" d="M352.4,152.9V91.6h45.5V102h-33.1v13.6h30.8v10.3h-30.8v16.7H399v10.3H352.4z"/>
		<text id="XMLID_8_" transform="matrix(1 0 0 1 348.3477 177.8942)" class="st1 st3 st4">OS</text>
	</g>
	<g id="XMLID_4_">
		<path id="XMLID_80_" class="st5" d="M139.7,153.7c-0.8-0.6-1.6-1.2-2.5-1.6c-3-1.7-6.5-2.7-10.2-2.7c-0.7,0-1.5,0-2.2,0.1
			c0,0,0,0,0,0c-1,0.1-2,0.3-3,0.5h0c-2.7,0.7-5.2,2-7.4,3.6c3.5,2.7,7.8,4.3,12.6,4.3c0,0,0,0,0,0c0,0,0,0,0.1,0
			c6.7,0,12.1,5.5,12.1,12.1c0,6.7-5.4,12.1-12.1,12.1c-5.2,0-9.7-3.3-11.4-8c-0.5-1.3-0.7-2.7-0.7-4.2c0,0,0,0,0,0
			c0-2.3-1.8-4.1-4.1-4.1h-4.1c-0.3,1.3-0.4,2.7-0.4,4.2c0,1.4,0.1,2.8,0.4,4.2c1.9,9.4,10.3,16.5,20.3,16.5
			c11.4,0,20.7-9.3,20.7-20.7C147.8,163.5,144.6,157.5,139.7,153.7z"/>
		<path id="XMLID_59_" class="st6" d="M137.2,98c0,0,7.1,14.8-7.3,18.4s-19.3,12.6-18.6,17.9"/>
		<path id="XMLID_17_" class="st1" d="M145.8,137.3c0,6.3-2.8,11.9-7.1,15.7c-3.6,3.2-8.4,5.1-13.6,5.1c-11.4,0-20.7-9.3-20.7-20.7
			c0-4.8,1.6-9.1,4.3-12.6c2.8-3.6,6.7-6.2,11.2-7.4h0c1-0.3,2-0.4,3-0.5c0,0,0,0,0,0c0.7-0.1,1.4-0.1,2.2-0.1c3.7,0,7.2,1,10.2,2.7
			c5.5,3.1,9.4,8.6,10.3,15.1C145.7,135.3,145.8,136.3,145.8,137.3z"/>
		<path id="XMLID_27_" class="st1" d="M77.2,182.1l-23.3-18.4c-6.8-12.3-10.1-26.4-10.1-43.1c0-27.8,11.2-51.9,27.6-64.1l0.4,11.4
			C60.3,78.7,53.3,100,53.3,120.7C53.3,137.1,59.1,166.2,77.2,182.1z"/>
		<polyline id="XMLID_64_" class="st1" points="71.3,56.4 86.9,56.4 96.1,88.1 106.6,56.4 121,56.6 119.8,68 117.2,66.7 112.2,66.2 
			105.8,88.1 88,88.1 80.8,66.7 73.8,66.7 71.7,67.8 		"/>
		<path id="XMLID_7_" class="st1" d="M145.3,98.1C145.3,98.1,145.3,98,145.3,98.1c-0.1-8.3-3.7-16.8-8-23.8
			c-4.3-6.9-10-12.9-16.3-17.9c-0.4,3.5-0.8,7-1.2,10.5c0,0.3-0.1,0.6,0,0.9c0.1,0.4,0.4,0.7,0.7,1c3.9,3.6,7.1,8,9.7,12.6
			c2.9,5.3,6.1,10.8,6.5,17c0,0.4,0,0.7,0,1.1c0,4.6-1.9,8.8-5,12c-2.4,2.5-5.5,4.3-9,5.2c-1,0.3-2,0.4-3,0.5
			c-4.5,1.2-8.3,3.9-11,7.5c2.7,0.8,5.3,1.2,8.2,1.2c6.8,0,13.1-2.5,18.2-6.7c1.3-1.1,2.6-2.3,3.7-3.6c1-1.1,1.9-2.3,2.7-3.4
			c0.1-0.1,0.1-0.2,0.2-0.3c0,0,0.1-0.1,0.1-0.1c0-0.1,0.1-0.1,0.1-0.2c0,0,0.1-0.1,0.1-0.1c0-0.1,0.1-0.1,0.1-0.2
			c0-0.1,0.1-0.1,0.1-0.2c0-0.1,0.1-0.1,0.1-0.2c0-0.1,0.1-0.1,0.1-0.2c0,0,0.1-0.1,0.1-0.1c0-0.1,0.1-0.1,0.1-0.2
			c0,0,0.1-0.1,0.1-0.1c0.1-0.1,0.1-0.2,0.2-0.3c0,0,0-0.1,0.1-0.1c0-0.1,0.1-0.1,0.1-0.2c0,0,0-0.1,0.1-0.1c0-0.1,0.1-0.1,0.1-0.2
			c0,0,0-0.1,0.1-0.1c0-0.1,0.1-0.1,0.1-0.2c0,0,0-0.1,0.1-0.1c0-0.1,0.1-0.1,0.1-0.2c0,0,0-0.1,0.1-0.1c0-0.1,0-0.1,0.1-0.2
			c0,0,0-0.1,0.1-0.1c0-0.1,0-0.1,0.1-0.2c0,0,0,0,0,0c0.1-0.1,0.1-0.3,0.2-0.4c0,0,0-0.1,0-0.1c0.1-0.2,0.1-0.3,0.2-0.5
			c0,0,0,0,0-0.1c0.1-0.3,0.2-0.6,0.3-1c0,0,0-0.1,0-0.1c0-0.2,0.1-0.3,0.1-0.5c0-0.2,0.1-0.3,0.1-0.5c0,0,0-0.1,0-0.1
			c0-0.2,0.1-0.3,0.1-0.5c0,0,0,0,0-0.1c0-0.1,0.1-0.3,0.1-0.4c0,0,0,0,0-0.1c0-0.2,0.1-0.3,0.1-0.5c0,0,0,0,0,0
			c0-0.2,0.1-0.3,0.1-0.5c0-0.2,0-0.3,0.1-0.5c0,0,0-0.1,0-0.1c0-0.2,0-0.3,0.1-0.5c0-0.1,0-0.3,0-0.4c0,0,0,0,0-0.1
			c0-0.2,0-0.3,0-0.5c0,0,0-0.1,0-0.1c0-0.1,0-0.3,0-0.4c0,0,0-0.1,0-0.1c0-0.2,0-0.3,0-0.5c0,0,0-0.1,0-0.1c0-0.1,0-0.3,0-0.4
			c0,0,0,0,0-0.1c0-0.2,0-0.3,0-0.5c0,0,0-0.1,0-0.1C145.4,98.4,145.4,98.2,145.3,98.1z"/>
		<path id="XMLID_5_" class="st2" d="M99.5,94.3h-5.1c-4.2,0-7.6-3.4-7.6-7.6v-5.1c0-4.2,3.4-7.6,7.6-7.6h5.1c4.2,0,7.6,3.4,7.6,7.6
			v5.1C107.2,90.8,103.7,94.3,99.5,94.3z"/>
		<ellipse id="XMLID_57_" class="st2" cx="125.2" cy="137.3" rx="12.1" ry="12.1"/>
		<path id="XMLID_15_" class="st7" d="M145.8,137.2c0,6.3-2.7,11.9-7.1,15.7c0,0-7.1-4.4-12.3-3.6c0.6-0.1,4.7-0.8,6.7-3
			c2.2-2.4,4.4-5.6,4.1-8.6c-0.2-2.7,0-1.4-0.4-3.5h8.7C145.7,135.2,145.8,136.2,145.8,137.2z"/>
	</g>
</g>
</svg>
